<svg width="195" height="41" viewBox="0 0 195 41" fill="none" xmlns="http://www.w3.org/2000/svg">
<rect y="0.131836" width="195" height="40" rx="4" fill="#E9E9E9"/>
<path d="M8.96591 14.1489V12.5864H19.875V14.1489H15.3011V27.1318H13.5398V14.1489H8.96591ZM25.358 27.3591C24.3068 27.3591 23.4001 27.1271 22.6378 26.6631C21.8802 26.1943 21.2955 25.5409 20.8835 24.7029C20.4763 23.8601 20.2727 22.8799 20.2727 21.7625C20.2727 20.6451 20.4763 19.6602 20.8835 18.808C21.2955 17.951 21.8684 17.2834 22.6023 16.8051C23.3409 16.3222 24.2027 16.0807 25.1875 16.0807C25.7557 16.0807 26.3168 16.1754 26.8707 16.3648C27.4247 16.5542 27.929 16.8619 28.3835 17.2881C28.8381 17.7095 29.2003 18.2682 29.4702 18.9642C29.7401 19.6602 29.875 20.5173 29.875 21.5352V22.2455H21.4659V20.7966H28.1705C28.1705 20.1811 28.0473 19.6318 27.8011 19.1489C27.5597 18.6659 27.214 18.2848 26.7642 18.0054C26.3191 17.7261 25.7936 17.5864 25.1875 17.5864C24.5199 17.5864 23.9422 17.7521 23.4545 18.0835C22.9716 18.4102 22.5999 18.8364 22.3395 19.3619C22.0791 19.8875 21.9489 20.451 21.9489 21.0523V22.0182C21.9489 22.8421 22.0909 23.5405 22.375 24.1134C22.6638 24.6816 23.0639 25.1148 23.5753 25.4131C24.0866 25.7066 24.6809 25.8534 25.358 25.8534C25.7983 25.8534 26.196 25.7919 26.5511 25.6688C26.911 25.5409 27.2211 25.3515 27.4815 25.1006C27.742 24.8449 27.9432 24.5277 28.0852 24.1489L29.7045 24.6034C29.5341 25.1527 29.2476 25.6356 28.8452 26.0523C28.4427 26.4642 27.9455 26.7862 27.3537 27.0182C26.7618 27.2455 26.0966 27.3591 25.358 27.3591ZM40.152 18.6659L38.6463 19.0921C38.5516 18.8411 38.4119 18.5973 38.2273 18.3605C38.0473 18.1191 37.8011 17.9202 37.4886 17.7639C37.1761 17.6077 36.776 17.5296 36.2884 17.5296C35.6207 17.5296 35.0644 17.6834 34.6193 17.9912C34.179 18.2942 33.9588 18.6801 33.9588 19.1489C33.9588 19.5655 34.1103 19.8946 34.4134 20.1361C34.7164 20.3776 35.1899 20.5788 35.8338 20.7398L37.4531 21.1375C38.4285 21.3743 39.1553 21.7365 39.6335 22.2242C40.1117 22.7071 40.3509 23.3298 40.3509 24.0921C40.3509 24.7171 40.1709 25.2758 39.8111 25.7682C39.456 26.2606 38.9588 26.6489 38.3196 26.933C37.6804 27.2171 36.937 27.3591 36.0895 27.3591C34.9768 27.3591 34.0559 27.1176 33.3267 26.6347C32.5975 26.1517 32.1359 25.4462 31.9418 24.5182L33.5327 24.1205C33.6842 24.7076 33.9706 25.1479 34.392 25.4415C34.8182 25.7351 35.3745 25.8818 36.0611 25.8818C36.8423 25.8818 37.4626 25.7161 37.9219 25.3847C38.3859 25.0485 38.6179 24.646 38.6179 24.1773C38.6179 23.7985 38.4853 23.4813 38.2202 23.2256C37.955 22.9652 37.5478 22.771 36.9986 22.6432L35.1804 22.2171C34.1813 21.9803 33.4474 21.6134 32.9787 21.1162C32.5147 20.6143 32.2827 19.9869 32.2827 19.2341C32.2827 18.6186 32.4555 18.0741 32.8011 17.6006C33.1515 17.1271 33.6274 16.7554 34.2287 16.4855C34.8348 16.2156 35.5213 16.0807 36.2884 16.0807C37.3679 16.0807 38.2154 16.3174 38.831 16.7909C39.4512 17.2644 39.8916 17.8894 40.152 18.6659ZM47.6183 16.2227V17.6432H41.9648V16.2227H47.6183ZM43.6126 13.6091H45.2887V24.0068C45.2887 24.4803 45.3574 24.8354 45.4947 25.0722C45.6367 25.3042 45.8166 25.4604 46.0344 25.5409C46.257 25.6167 46.4914 25.6546 46.7376 25.6546C46.9222 25.6546 47.0737 25.6451 47.1921 25.6262C47.3105 25.6025 47.4052 25.5835 47.4762 25.5693L47.8171 27.075C47.7035 27.1176 47.5449 27.1602 47.3413 27.2029C47.1377 27.2502 46.8796 27.2739 46.5671 27.2739C46.0936 27.2739 45.6296 27.1721 45.1751 26.9685C44.7253 26.7649 44.3512 26.4548 44.0529 26.0381C43.7594 25.6214 43.6126 25.0959 43.6126 24.4614V13.6091ZM55.9918 27.1318V12.5864H57.7532V19.0637H65.5089V12.5864H67.2702V27.1318H65.5089V20.6262H57.7532V27.1318H55.9918ZM75.0011 27.3591C74.0162 27.3591 73.1521 27.1247 72.4087 26.656C71.6701 26.1872 71.0924 25.5315 70.6758 24.6887C70.2638 23.8459 70.0579 22.861 70.0579 21.7341C70.0579 20.5977 70.2638 19.6058 70.6758 18.7583C71.0924 17.9107 71.6701 17.2526 72.4087 16.7838C73.1521 16.3151 74.0162 16.0807 75.0011 16.0807C75.9859 16.0807 76.8477 16.3151 77.5863 16.7838C78.3297 17.2526 78.9073 17.9107 79.3192 18.7583C79.7359 19.6058 79.9442 20.5977 79.9442 21.7341C79.9442 22.861 79.7359 23.8459 79.3192 24.6887C78.9073 25.5315 78.3297 26.1872 77.5863 26.656C76.8477 27.1247 75.9859 27.3591 75.0011 27.3591ZM75.0011 25.8534C75.7492 25.8534 76.3647 25.6617 76.8477 25.2781C77.3306 24.8946 77.6881 24.3904 77.9201 23.7654C78.1521 23.1404 78.2681 22.4633 78.2681 21.7341C78.2681 21.0049 78.1521 20.3255 77.9201 19.6958C77.6881 19.066 77.3306 18.557 76.8477 18.1688C76.3647 17.7805 75.7492 17.5864 75.0011 17.5864C74.253 17.5864 73.6374 17.7805 73.1545 18.1688C72.6715 18.557 72.314 19.066 72.082 19.6958C71.85 20.3255 71.734 21.0049 71.734 21.7341C71.734 22.4633 71.85 23.1404 72.082 23.7654C72.314 24.3904 72.6715 24.8946 73.1545 25.2781C73.6374 25.6617 74.253 25.8534 75.0011 25.8534ZM82.5028 27.1318V16.2227H84.1222V17.9273H84.2642C84.4915 17.3449 84.8584 16.8927 85.3651 16.5708C85.8717 16.2441 86.4801 16.0807 87.1903 16.0807C87.91 16.0807 88.509 16.2441 88.9872 16.5708C89.4702 16.8927 89.8466 17.3449 90.1165 17.9273H90.2301C90.5095 17.3638 90.9285 16.9164 91.4872 16.585C92.0459 16.2488 92.7159 16.0807 93.4972 16.0807C94.4725 16.0807 95.2704 16.3861 95.8906 16.9969C96.5109 17.603 96.821 18.5476 96.821 19.8307V27.1318H95.1449V19.8307C95.1449 19.0258 94.9247 18.4505 94.4844 18.1048C94.044 17.7592 93.5256 17.5864 92.929 17.5864C92.1619 17.5864 91.5677 17.8184 91.1463 18.2824C90.7249 18.7417 90.5142 19.3241 90.5142 20.0296V27.1318H88.8097V19.6602C88.8097 19.04 88.6084 18.5405 88.206 18.1617C87.8035 17.7781 87.285 17.5864 86.6506 17.5864C86.215 17.5864 85.8078 17.7024 85.429 17.9344C85.0549 18.1664 84.7519 18.4884 84.5199 18.9003C84.2926 19.3075 84.179 19.7786 84.179 20.3137V27.1318H82.5028ZM104.46 27.3591C103.408 27.3591 102.502 27.1271 101.739 26.6631C100.982 26.1943 100.397 25.5409 99.9851 24.7029C99.5779 23.8601 99.3743 22.8799 99.3743 21.7625C99.3743 20.6451 99.5779 19.6602 99.9851 18.808C100.397 17.951 100.97 17.2834 101.704 16.8051C102.442 16.3222 103.304 16.0807 104.289 16.0807C104.857 16.0807 105.418 16.1754 105.972 16.3648C106.526 16.5542 107.031 16.8619 107.485 17.2881C107.94 17.7095 108.302 18.2682 108.572 18.9642C108.842 19.6602 108.977 20.5173 108.977 21.5352V22.2455H100.567V20.7966H107.272C107.272 20.1811 107.149 19.6318 106.903 19.1489C106.661 18.6659 106.316 18.2848 105.866 18.0054C105.421 17.7261 104.895 17.5864 104.289 17.5864C103.621 17.5864 103.044 17.7521 102.556 18.0835C102.073 18.4102 101.701 18.8364 101.441 19.3619C101.181 19.8875 101.05 20.451 101.05 21.0523V22.0182C101.05 22.8421 101.192 23.5405 101.477 24.1134C101.765 24.6816 102.165 25.1148 102.677 25.4131C103.188 25.7066 103.782 25.8534 104.46 25.8534C104.9 25.8534 105.298 25.7919 105.653 25.6688C106.013 25.5409 106.323 25.3515 106.583 25.1006C106.844 24.8449 107.045 24.5277 107.187 24.1489L108.806 24.6034C108.636 25.1527 108.349 25.6356 107.947 26.0523C107.544 26.4642 107.047 26.7862 106.455 27.0182C105.863 27.2455 105.198 27.3591 104.46 27.3591Z" fill="#111111"/>
<path d="M187.884 21.0157C188.372 20.5276 188.372 19.7361 187.884 19.248L179.929 11.293C179.441 10.8048 178.649 10.8048 178.161 11.293C177.673 11.7812 177.673 12.5726 178.161 13.0608L185.232 20.1318L178.161 27.2029C177.673 27.6911 177.673 28.4825 178.161 28.9707C178.649 29.4588 179.441 29.4588 179.929 28.9707L187.884 21.0157ZM163 21.3818H187V18.8818H163V21.3818Z" fill="#986F0B"/>
</svg>
