<svg width="195" height="41" viewBox="0 0 195 41" fill="none" xmlns="http://www.w3.org/2000/svg">
<rect y="0.131836" width="195" height="40" rx="4" fill="#E9E9E9"/>
<rect width="24" height="0" transform="translate(8 20.1318)" fill="#986F0B"/>
<path d="M7.11612 21.0157C6.62796 20.5276 6.62796 19.7361 7.11612 19.248L15.0711 11.293C15.5592 10.8048 16.3507 10.8048 16.8388 11.293C17.327 11.7812 17.327 12.5726 16.8388 13.0608L9.76777 20.1318L16.8388 27.2029C17.327 27.6911 17.327 28.4825 16.8388 28.9707C16.3507 29.4588 15.5592 29.4588 15.0711 28.9707L7.11612 21.0157ZM32 21.3818H8V18.8818H32V21.3818Z" fill="#986F0B"/>
<path d="M46.25 27.1318H41.7614V12.5864H46.4489C47.8598 12.5864 49.0672 12.8776 50.071 13.46C51.0748 14.0376 51.8442 14.8686 52.3793 15.9529C52.9143 17.0324 53.1818 18.325 53.1818 19.8307C53.1818 21.3459 52.9119 22.6503 52.3722 23.7441C51.8324 24.8331 51.0464 25.6711 50.0142 26.2583C48.982 26.8406 47.7273 27.1318 46.25 27.1318ZM43.5227 25.5693H46.1364C47.339 25.5693 48.3357 25.3373 49.1264 24.8733C49.9171 24.4093 50.5066 23.7488 50.8949 22.8918C51.2831 22.0348 51.4773 21.0144 51.4773 19.8307C51.4773 18.6565 51.2855 17.6456 50.902 16.798C50.5185 15.9458 49.9455 15.2923 49.1832 14.8378C48.4209 14.3785 47.4716 14.1489 46.3352 14.1489H43.5227V25.5693ZM60.3409 27.3591C59.3561 27.3591 58.492 27.1247 57.7486 26.656C57.0099 26.1872 56.4323 25.5315 56.0156 24.6887C55.6037 23.8459 55.3977 22.861 55.3977 21.7341C55.3977 20.5977 55.6037 19.6058 56.0156 18.7583C56.4323 17.9107 57.0099 17.2526 57.7486 16.7838C58.492 16.3151 59.3561 16.0807 60.3409 16.0807C61.3258 16.0807 62.1875 16.3151 62.9261 16.7838C63.6695 17.2526 64.2472 17.9107 64.6591 18.7583C65.0758 19.6058 65.2841 20.5977 65.2841 21.7341C65.2841 22.861 65.0758 23.8459 64.6591 24.6887C64.2472 25.5315 63.6695 26.1872 62.9261 26.656C62.1875 27.1247 61.3258 27.3591 60.3409 27.3591ZM60.3409 25.8534C61.089 25.8534 61.7045 25.6617 62.1875 25.2781C62.6705 24.8946 63.0279 24.3904 63.2599 23.7654C63.492 23.1404 63.608 22.4633 63.608 21.7341C63.608 21.0049 63.492 20.3255 63.2599 19.6958C63.0279 19.066 62.6705 18.557 62.1875 18.1688C61.7045 17.7805 61.089 17.5864 60.3409 17.5864C59.5928 17.5864 58.9773 17.7805 58.4943 18.1688C58.0114 18.557 57.6539 19.066 57.4219 19.6958C57.1899 20.3255 57.0739 21.0049 57.0739 21.7341C57.0739 22.4633 57.1899 23.1404 57.4219 23.7654C57.6539 24.3904 58.0114 24.8946 58.4943 25.2781C58.9773 25.6617 59.5928 25.8534 60.3409 25.8534ZM72.2745 27.3591C71.2518 27.3591 70.3711 27.1176 69.6325 26.6347C68.8938 26.1517 68.3256 25.4865 67.9279 24.6389C67.5302 23.7914 67.3313 22.8231 67.3313 21.7341C67.3313 20.6262 67.5349 19.6484 67.9421 18.8009C68.354 17.9486 68.927 17.2834 69.6609 16.8051C70.3995 16.3222 71.2612 16.0807 72.2461 16.0807C73.0131 16.0807 73.7044 16.2227 74.32 16.5068C74.9355 16.7909 75.4397 17.1887 75.8327 17.7C76.2257 18.2114 76.4696 18.808 76.5643 19.4898H74.8881C74.7603 18.9926 74.4762 18.5523 74.0359 18.1688C73.6003 17.7805 73.0131 17.5864 72.2745 17.5864C71.6211 17.5864 71.0482 17.7568 70.5558 18.0977C70.0681 18.4339 69.6869 18.9098 69.4123 19.5253C69.1424 20.1361 69.0075 20.8534 69.0075 21.6773C69.0075 22.5201 69.14 23.254 69.4052 23.879C69.6751 24.504 70.0539 24.9893 70.5415 25.335C71.034 25.6806 71.6116 25.8534 72.2745 25.8534C72.7101 25.8534 73.1055 25.7777 73.4606 25.6262C73.8157 25.4746 74.1164 25.2568 74.3626 24.9727C74.6088 24.6887 74.784 24.3477 74.8881 23.95H76.5643C76.4696 24.594 76.2352 25.174 75.8612 25.6901C75.4918 26.2014 75.0018 26.6086 74.391 26.9117C73.7849 27.21 73.0794 27.3591 72.2745 27.3591ZM85.8896 22.6716V16.2227H87.5657V27.1318H85.8896V25.2852H85.7759C85.5202 25.8392 85.1225 26.3103 84.5827 26.6986C84.043 27.0821 83.3612 27.2739 82.5373 27.2739C81.8555 27.2739 81.2494 27.1247 80.7191 26.8264C80.1888 26.5234 79.7721 26.0689 79.4691 25.4628C79.1661 24.852 79.0146 24.0826 79.0146 23.1546V16.2227H80.6907V23.0409C80.6907 23.8364 80.9132 24.4709 81.3583 24.9443C81.8081 25.4178 82.381 25.6546 83.0771 25.6546C83.4937 25.6546 83.9175 25.548 84.3484 25.335C84.784 25.1219 85.1486 24.7952 85.4421 24.3548C85.7404 23.9145 85.8896 23.3534 85.8896 22.6716ZM90.6357 27.1318V16.2227H92.255V17.9273H92.397C92.6243 17.3449 92.9912 16.8927 93.4979 16.5708C94.0045 16.2441 94.6129 16.0807 95.3232 16.0807C96.0429 16.0807 96.6418 16.2441 97.12 16.5708C97.603 16.8927 97.9794 17.3449 98.2493 17.9273H98.3629C98.6423 17.3638 99.0613 16.9164 99.62 16.585C100.179 16.2488 100.849 16.0807 101.63 16.0807C102.605 16.0807 103.403 16.3861 104.023 16.9969C104.644 17.603 104.954 18.5476 104.954 19.8307V27.1318H103.278V19.8307C103.278 19.0258 103.058 18.4505 102.617 18.1048C102.177 17.7592 101.658 17.5864 101.062 17.5864C100.295 17.5864 99.7005 17.8184 99.2791 18.2824C98.8577 18.7417 98.647 19.3241 98.647 20.0296V27.1318H96.9425V19.6602C96.9425 19.04 96.7412 18.5405 96.3388 18.1617C95.9363 17.7781 95.4179 17.5864 94.7834 17.5864C94.3478 17.5864 93.9406 17.7024 93.5618 17.9344C93.1877 18.1664 92.8847 18.4884 92.6527 18.9003C92.4254 19.3075 92.3118 19.7786 92.3118 20.3137V27.1318H90.6357ZM112.592 27.3591C111.541 27.3591 110.634 27.1271 109.872 26.6631C109.115 26.1943 108.53 25.5409 108.118 24.7029C107.711 23.8601 107.507 22.8799 107.507 21.7625C107.507 20.6451 107.711 19.6602 108.118 18.808C108.53 17.951 109.103 17.2834 109.837 16.8051C110.575 16.3222 111.437 16.0807 112.422 16.0807C112.99 16.0807 113.551 16.1754 114.105 16.3648C114.659 16.5542 115.163 16.8619 115.618 17.2881C116.072 17.7095 116.435 18.2682 116.705 18.9642C116.974 19.6602 117.109 20.5173 117.109 21.5352V22.2455H108.7V20.7966H115.405C115.405 20.1811 115.282 19.6318 115.036 19.1489C114.794 18.6659 114.448 18.2848 113.999 18.0054C113.554 17.7261 113.028 17.5864 112.422 17.5864C111.754 17.5864 111.177 17.7521 110.689 18.0835C110.206 18.4102 109.834 18.8364 109.574 19.3619C109.313 19.8875 109.183 20.451 109.183 21.0523V22.0182C109.183 22.8421 109.325 23.5405 109.609 24.1134C109.898 24.6816 110.298 25.1148 110.81 25.4131C111.321 25.7066 111.915 25.8534 112.592 25.8534C113.033 25.8534 113.43 25.7919 113.786 25.6688C114.145 25.5409 114.455 25.3515 114.716 25.1006C114.976 24.8449 115.178 24.5277 115.32 24.1489L116.939 24.6034C116.768 25.1527 116.482 25.6356 116.08 26.0523C115.677 26.4642 115.18 26.7862 114.588 27.0182C113.996 27.2455 113.331 27.3591 112.592 27.3591ZM121.335 20.5693V27.1318H119.659V16.2227H121.278V17.9273H121.42C121.676 17.3733 122.064 16.9282 122.585 16.5921C123.106 16.2512 123.778 16.0807 124.602 16.0807C125.341 16.0807 125.987 16.2322 126.541 16.5352C127.095 16.8335 127.526 17.2881 127.834 17.8989C128.142 18.5049 128.295 19.272 128.295 20.2V27.1318H126.619V20.3137C126.619 19.4566 126.397 18.789 125.952 18.3108C125.507 17.8279 124.896 17.5864 124.119 17.5864C123.584 17.5864 123.106 17.7024 122.685 17.9344C122.268 18.1664 121.939 18.5049 121.697 18.95C121.456 19.3951 121.335 19.9349 121.335 20.5693ZM136.103 16.2227V17.6432H130.449V16.2227H136.103ZM132.097 13.6091H133.773V24.0068C133.773 24.4803 133.842 24.8354 133.979 25.0722C134.121 25.3042 134.301 25.4604 134.519 25.5409C134.741 25.6167 134.976 25.6546 135.222 25.6546C135.407 25.6546 135.558 25.6451 135.676 25.6262C135.795 25.6025 135.89 25.5835 135.961 25.5693L136.301 27.075C136.188 27.1176 136.029 27.1602 135.826 27.2029C135.622 27.2502 135.364 27.2739 135.051 27.2739C134.578 27.2739 134.114 27.1721 133.659 26.9685C133.21 26.7649 132.836 26.4548 132.537 26.0381C132.244 25.6214 132.097 25.0959 132.097 24.4614V13.6091ZM141.834 27.3875C141.143 27.3875 140.516 27.2573 139.952 26.9969C139.389 26.7317 138.941 26.3506 138.61 25.8534C138.278 25.3515 138.113 24.7455 138.113 24.0352C138.113 23.4102 138.236 22.9036 138.482 22.5154C138.728 22.1224 139.057 21.8146 139.469 21.5921C139.881 21.3695 140.336 21.2038 140.833 21.0949C141.335 20.9813 141.839 20.8913 142.346 20.825C143.008 20.7398 143.546 20.6759 143.958 20.6333C144.374 20.5859 144.677 20.5078 144.867 20.3989C145.061 20.29 145.158 20.1006 145.158 19.8307V19.7739C145.158 19.0731 144.966 18.5286 144.583 18.1404C144.204 17.7521 143.629 17.558 142.857 17.558C142.057 17.558 141.429 17.7332 140.975 18.0835C140.52 18.4339 140.201 18.808 140.016 19.2057L138.425 18.6375C138.709 17.9746 139.088 17.4585 139.561 17.0892C140.04 16.7152 140.56 16.4548 141.124 16.308C141.692 16.1565 142.251 16.0807 142.8 16.0807C143.15 16.0807 143.553 16.1233 144.007 16.2085C144.467 16.289 144.909 16.4571 145.336 16.7128C145.766 16.9685 146.124 17.3544 146.408 17.8705C146.692 18.3866 146.834 19.0779 146.834 19.9443V27.1318H145.158V25.6546H145.073C144.959 25.8913 144.77 26.1446 144.505 26.4145C144.239 26.6844 143.887 26.914 143.446 27.1034C143.006 27.2928 142.469 27.3875 141.834 27.3875ZM142.09 25.8818C142.753 25.8818 143.311 25.7516 143.766 25.4912C144.225 25.2308 144.571 24.8946 144.803 24.4827C145.04 24.0708 145.158 23.6375 145.158 23.183V21.6489C145.087 21.7341 144.931 21.8122 144.689 21.8833C144.453 21.9495 144.178 22.0087 143.865 22.0608C143.558 22.1082 143.257 22.1508 142.963 22.1887C142.675 22.2218 142.44 22.2502 142.26 22.2739C141.825 22.3307 141.417 22.423 141.039 22.5509C140.665 22.674 140.362 22.861 140.13 23.1119C139.902 23.3582 139.789 23.6943 139.789 24.1205C139.789 24.7029 140.004 25.1432 140.435 25.4415C140.871 25.7351 141.422 25.8818 142.09 25.8818ZM154.638 16.2227V17.6432H148.984V16.2227H154.638ZM150.632 13.6091H152.308V24.0068C152.308 24.4803 152.377 24.8354 152.514 25.0722C152.656 25.3042 152.836 25.4604 153.054 25.5409C153.277 25.6167 153.511 25.6546 153.757 25.6546C153.942 25.6546 154.093 25.6451 154.212 25.6262C154.33 25.6025 154.425 25.5835 154.496 25.5693L154.837 27.075C154.723 27.1176 154.564 27.1602 154.361 27.2029C154.157 27.2502 153.899 27.2739 153.587 27.2739C153.113 27.2739 152.649 27.1721 152.195 26.9685C151.745 26.7649 151.371 26.4548 151.072 26.0381C150.779 25.6214 150.632 25.0959 150.632 24.4614V13.6091ZM157.159 27.1318V16.2227H158.835V27.1318H157.159ZM158.011 14.4046C157.685 14.4046 157.403 14.2933 157.166 14.0708C156.934 13.8482 156.818 13.5807 156.818 13.2682C156.818 12.9557 156.934 12.6882 157.166 12.4656C157.403 12.2431 157.685 12.1318 158.011 12.1318C158.338 12.1318 158.617 12.2431 158.849 12.4656C159.086 12.6882 159.205 12.9557 159.205 13.2682C159.205 13.5807 159.086 13.8482 158.849 14.0708C158.617 14.2933 158.338 14.4046 158.011 14.4046ZM166.337 27.3591C165.352 27.3591 164.488 27.1247 163.745 26.656C163.006 26.1872 162.428 25.5315 162.012 24.6887C161.6 23.8459 161.394 22.861 161.394 21.7341C161.394 20.5977 161.6 19.6058 162.012 18.7583C162.428 17.9107 163.006 17.2526 163.745 16.7838C164.488 16.3151 165.352 16.0807 166.337 16.0807C167.322 16.0807 168.184 16.3151 168.922 16.7838C169.666 17.2526 170.243 17.9107 170.655 18.7583C171.072 19.6058 171.28 20.5977 171.28 21.7341C171.28 22.861 171.072 23.8459 170.655 24.6887C170.243 25.5315 169.666 26.1872 168.922 26.656C168.184 27.1247 167.322 27.3591 166.337 27.3591ZM166.337 25.8534C167.085 25.8534 167.701 25.6617 168.184 25.2781C168.667 24.8946 169.024 24.3904 169.256 23.7654C169.488 23.1404 169.604 22.4633 169.604 21.7341C169.604 21.0049 169.488 20.3255 169.256 19.6958C169.024 19.066 168.667 18.557 168.184 18.1688C167.701 17.7805 167.085 17.5864 166.337 17.5864C165.589 17.5864 164.973 17.7805 164.49 18.1688C164.007 18.557 163.65 19.066 163.418 19.6958C163.186 20.3255 163.07 21.0049 163.07 21.7341C163.07 22.4633 163.186 23.1404 163.418 23.7654C163.65 24.3904 164.007 24.8946 164.49 25.2781C164.973 25.6617 165.589 25.8534 166.337 25.8534ZM175.515 20.5693V27.1318H173.839V16.2227H175.458V17.9273H175.6C175.856 17.3733 176.244 16.9282 176.765 16.5921C177.286 16.2512 177.958 16.0807 178.782 16.0807C179.521 16.0807 180.167 16.2322 180.721 16.5352C181.275 16.8335 181.706 17.2881 182.013 17.8989C182.321 18.5049 182.475 19.272 182.475 20.2V27.1318H180.799V20.3137C180.799 19.4566 180.576 18.789 180.131 18.3108C179.686 17.8279 179.076 17.5864 178.299 17.5864C177.764 17.5864 177.286 17.7024 176.864 17.9344C176.448 18.1664 176.119 18.5049 175.877 18.95C175.636 19.3951 175.515 19.9349 175.515 20.5693Z" fill="#111111"/>
</svg>
